# xmcd CD database file
#
# Track frame offsets:
#	150
#	30267
#	58622
#	75221
#	108632
#	129802
#	152840
#	191424
#	214450
#	236264
#	254028
#	271061
#
# Disc length: 3858 seconds
#
# Revision: 0
# Processed by: cddbd v1.5.2PL0 Copyright (c) Steve Scherf et al.
# Submitted via: CDex 1.51
#
DISCID=960f100c
DTITLE=Noldi Tobler Playalongs - Noldi Tobler and Band
DYEAR=2008
DGENRE=Jazz
TTITLE0=Sunshower
TTITLE1=Ain't Misbehavin
TTITLE2=Miss you Rose
TTITLE3=Maditation
TTITLE4=All of Me
TTITLE5=Morning Dance
TTITLE6=Black Coffee
TTITLE7=Favela
TTITLE8=Mercy Mercy Mercy
TTITLE9=Misty
TTITLE10=Blue Monk
TTITLE11=It could happen to you
EXTD=YEAR: 2008
EXTT0=
EXTT1=
EXTT2=
EXTT3=
EXTT4=
EXTT5=
EXTT6=
EXTT7=
EXTT8=
EXTT9=
EXTT10=
EXTT11=
PLAYORDER=
